<svg width="24" height="24" viewBox="0 0 24 24" fill="none" xmlns="http://www.w3.org/2000/svg">
<path d="M10.64 18.77C10.7413 18.6861 10.825 18.583 10.8863 18.4666C10.9477 18.3503 10.9855 18.223 10.9975 18.092C11.0096 17.961 10.9957 17.8289 10.9567 17.7033C10.9176 17.5777 10.8542 17.4611 10.77 17.36L7.13999 13L19 13C19.2652 13 19.5196 12.8947 19.7071 12.7071C19.8946 12.5196 20 12.2652 20 12C20 11.7348 19.8946 11.4804 19.7071 11.2929C19.5196 11.1054 19.2652 11 19 11L7.13999 11L10.77 6.64001C10.854 6.53889 10.9173 6.42221 10.9563 6.29663C10.9952 6.17104 11.0091 6.03902 10.997 5.90808C10.9849 5.77715 10.9472 5.64988 10.8859 5.53354C10.8247 5.41719 10.7411 5.31406 10.64 5.23001C10.5389 5.14596 10.4222 5.08266 10.2966 5.0437C10.171 5.00475 10.039 4.99092 9.90807 5.00299C9.77714 5.01506 9.64987 5.0528 9.53352 5.11406C9.41718 5.17532 9.31404 5.25889 9.22999 5.36001L4.22999 11.36L4.13999 11.51L4.06999 11.64C3.9806 11.8717 3.9806 12.1283 4.06999 12.36L4.13999 12.49L4.22999 12.64L9.22999 18.64C9.31394 18.7413 9.41704 18.825 9.53339 18.8863C9.64974 18.9477 9.77704 18.9855 9.90802 18.9975C10.039 19.0096 10.1711 18.9957 10.2967 18.9567C10.4223 18.9177 10.5389 18.8542 10.64 18.77Z" fill="#F8F8F8"/>
</svg>
